<svg width="5276" height="3542" viewBox="0 0 5276 3542" fill="none" xmlns="http://www.w3.org/2000/svg">
<path d="M2494.5 2159.87V2327.18H2240.61C2225.18 2327.18 2210.7 2325.28 2197.27 2321.3C2183.73 2317.52 2174.18 2311.84 2168.41 2304.08C2162.63 2296.33 2157.81 2286.67 2154.02 2275.13C2150.14 2263.58 2148.25 2250.14 2148.25 2234.82V1230.61C2148.25 1215.28 2150.14 1201.84 2154.02 1190.29C2157.81 1178.75 2164.52 1168.15 2174.18 1158.5C2183.73 1149.04 2194.43 1142.22 2205.97 1138.44C2217.52 1134.65 2230.96 1132.57 2246.38 1132.57H2511.81V1346.05C2511.81 1353.81 2509.83 1361.57 2506.04 1369.15C2502.16 1376.9 2497.34 1383.53 2491.56 1389.4C2485.79 1395.07 2479.07 1400 2471.41 1403.78C2463.65 1407.75 2455.99 1409.65 2448.31 1409.65C2440.56 1409.65 2432.89 1407.75 2425.23 1403.78C2417.47 1400 2410.84 1395.07 2405.07 1389.4C2399.3 1383.53 2394.38 1376.9 2390.59 1369.15C2386.71 1361.57 2384.82 1353.81 2384.82 1346.05C2384.82 1338.49 2386.71 1330.72 2390.59 1322.96C2394.38 1315.4 2399.3 1308.58 2405.07 1302.9C2410.84 1297.04 2417.47 1292.3 2425.23 1288.33C2432.89 1284.55 2440.56 1282.65 2448.31 1282.65H2459.86V1248.01C2459.86 1236.48 2457.87 1225.88 2454.09 1216.23C2450.21 1206.76 2447.28 1199.95 2445.39 1195.98C2443.4 1192.19 2440.56 1189.35 2436.78 1187.45C2432.89 1185.57 2429.01 1184.43 2425.23 1184.43H2286.69C2282.81 1184.43 2278.93 1185.57 2275.14 1187.45C2271.27 1189.35 2267.48 1193.13 2263.6 1199C2259.82 1204.68 2256.88 1213.39 2254.99 1224.93C2253 1236.48 2252.15 1249.91 2252.15 1265.24V2217.4C2252.15 2228.95 2253 2238.6 2254.99 2246.36C2256.88 2254.12 2258.78 2259.8 2260.76 2263.58C2262.65 2267.56 2265.59 2270.39 2269.37 2272.29C2273.16 2274.37 2277.04 2275.13 2280.92 2275.13H2442.55V2159.87H2494.5Z" fill="#AB4559"/>
<path d="M2725.29 1248.02V2327.17H2615.62V1.55664H2725.29V1132.57H2933.01C2948.33 1132.57 2961.87 1134.65 2973.41 1138.44C2984.96 1142.22 2995.46 1149.04 3005.11 1158.5C3014.67 1168.15 3021.48 1178.75 3025.36 1190.3C3029.15 1201.83 3031.13 1215.27 3031.13 1230.61V2327.17H2927.23V1242.15C2927.23 1230.61 2925.25 1221.15 2921.46 1213.38C2917.58 1205.62 2913.7 1199.95 2909.92 1195.97C2906.03 1192.18 2902.16 1189.35 2898.37 1187.45C2894.49 1185.56 2890.61 1184.42 2886.82 1184.42H2759.84C2755.95 1184.42 2752.07 1185.56 2748.29 1187.45C2744.41 1189.35 2740.63 1192.18 2736.74 1195.97C2732.96 1199.95 2730.02 1206.76 2728.13 1216.22C2726.15 1225.87 2725.29 1236.47 2725.29 1248.02Z" fill="#AB4559"/>
<path d="M3550.56 1132.57H3498.61L3544.79 1069.16C3537.03 1065.38 3530.31 1061.41 3524.54 1057.62C3518.77 1053.84 3513.94 1048.91 3510.16 1043.05C3506.27 1037.37 3503.35 1031.5 3501.45 1025.82C3499.46 1019.96 3498.61 1013.34 3498.61 1005.57C3498.61 998.003 3500.5 990.246 3504.38 982.488C3508.17 974.912 3513 968.101 3518.77 962.419C3524.54 956.555 3531.26 951.828 3539.02 947.851C3546.68 944.062 3554.35 942.169 3562.11 942.169C3569.77 942.169 3577.43 944.062 3585.1 947.851C3592.77 951.828 3599.58 956.555 3605.36 962.419C3611.12 968.101 3615.86 974.912 3619.73 982.488C3623.52 990.246 3625.51 998.003 3625.51 1005.57V1017.12C3625.51 1021.09 3624.56 1024.88 3622.67 1028.66C3620.68 1032.64 3619.73 1035.47 3619.73 1037.37C3619.73 1039.26 3617.75 1042.29 3613.97 1046.07L3550.56 1132.57ZM3452.43 2327.17H3238.95C3223.52 2327.17 3210.08 2325.28 3198.54 2321.31C3186.99 2317.52 3176.3 2310.9 3166.74 2301.25C3157.09 2291.59 3150.38 2281.93 3146.59 2272.28C3142.71 2262.82 3140.82 2252.03 3140.82 2240.49V1132.57H3250.4V2228.95C3250.4 2236.71 3251.34 2242.57 3253.33 2246.36C3255.23 2250.15 3257.11 2255.06 3259.1 2260.74C3261 2266.61 3264.88 2270.4 3270.65 2272.28C3276.42 2274.37 3281.15 2275.12 3285.03 2275.12H3406.25C3410.04 2275.12 3414.96 2274.37 3420.64 2272.28C3426.41 2270.4 3430.2 2266.61 3432.18 2260.74C3434.07 2255.06 3435.96 2250.15 3437.95 2246.36C3439.85 2242.57 3440.89 2236.71 3440.89 2228.95V1132.57H3550.56V2240.49C3550.56 2252.03 3547.63 2262.82 3541.86 2272.28C3536.08 2281.93 3528.32 2291.59 3518.77 2301.25C3509.11 2310.9 3498.61 2317.52 3487.06 2321.31C3475.52 2325.28 3463.97 2327.17 3452.43 2327.17Z" fill="#AB4559"/>
<path d="M4009.89 1132.57H3960.21L4004.41 1069.16C3997.02 1065.38 3990.49 1061.41 3985 1057.62C3979.52 1053.84 3974.88 1048.91 3971.19 1043.05C3967.5 1037.37 3964.75 1031.5 3962.96 1025.82C3961.06 1019.96 3960.21 1013.34 3960.21 1005.57C3960.21 998.003 3962.01 990.246 3965.7 982.488C3969.3 974.912 3973.93 968.101 3979.52 962.419C3985 956.555 3991.44 951.828 3998.82 947.851C4006.2 944.062 4013.49 942.169 4020.87 942.169C4028.25 942.169 4035.63 944.062 4043.01 947.851C4050.3 951.828 4056.63 956.555 4062.32 962.419C4067.8 968.101 4072.44 974.912 4076.32 982.488C4080.11 990.246 4082.09 998.003 4082.09 1005.57V1017.12C4082.09 1021.09 4081.15 1024.88 4079.25 1028.66C4077.26 1032.64 4076.32 1035.47 4076.32 1037.37C4076.32 1039.26 4074.34 1042.29 4070.55 1046.07L4009.89 1132.57ZM3803.5 2275.12H3949.61C3957.09 2275.12 3962.67 2273.23 3966.45 2269.45C3970.15 2265.66 3973.84 2258.85 3977.62 2249.2C3981.41 2239.74 3983.3 2228.95 3983.3 2217.4V1248.02C3983.3 1236.47 3982.26 1226.82 3980.46 1219.06C3978.57 1211.49 3976.67 1204.67 3974.78 1199C3972.89 1193.13 3969.11 1189.34 3963.53 1187.45C3957.94 1185.56 3949.52 1184.42 3938.26 1184.42H3814.77C3807.2 1184.42 3800.57 1185.56 3794.99 1187.45C3789.4 1189.34 3784.77 1192.18 3780.98 1195.97C3777.2 1199.94 3774.36 1206.76 3772.56 1216.22C3770.67 1225.87 3769.81 1236.47 3769.81 1248.02V2217.4C3769.81 2232.92 3771.61 2244.46 3775.4 2252.03C3779.18 2259.8 3782.88 2265.66 3786.66 2269.45C3790.35 2273.23 3795.94 2275.12 3803.5 2275.12ZM3990.4 2327.17H3779.75C3764.52 2327.17 3750.32 2326.22 3737.07 2324.33C3723.73 2322.25 3712.38 2317.52 3702.82 2309.76C3693.36 2302.18 3684.84 2292.53 3677.27 2280.99C3669.7 2269.45 3665.91 2254.12 3665.91 2234.81V1230.6C3665.91 1215.27 3667.8 1201.83 3671.59 1190.29C3675.37 1178.75 3681.91 1168.15 3691.46 1158.49C3700.93 1149.03 3711.43 1142.22 3722.79 1138.43C3734.14 1134.65 3747.48 1132.57 3762.62 1132.57H3990.4C4005.54 1132.57 4018.79 1134.65 4030.14 1138.43C4041.5 1142.22 4052 1149.03 4061.56 1158.49C4071.02 1168.15 4077.74 1178.75 4081.53 1190.29C4085.31 1201.83 4087.21 1215.27 4087.21 1230.6V2234.81C4087.21 2250.15 4085.31 2263.58 4081.53 2275.12C4077.74 2286.67 4071.02 2296.32 4061.56 2304.08C4052 2311.84 4041.5 2317.52 4030.14 2321.31C4018.79 2325.28 4005.54 2327.17 3990.4 2327.17Z" fill="#AB4559"/>
<path d="M4346.77 1398.1V2327.17H4237.2V1132.57H4346.77V1271.1L4421.82 1132.57H4589.21C4604.54 1132.57 4618.08 1134.65 4629.62 1138.43C4641.16 1142.22 4651.67 1149.03 4661.32 1158.49C4670.88 1168.14 4677.6 1178.74 4681.47 1190.29C4685.26 1201.83 4687.25 1215.27 4687.25 1230.6V2327.17H4583.44V1248.02V1227.77C4583.44 1222.08 4582.4 1216.22 4580.51 1210.54C4578.52 1204.67 4575.68 1199.94 4571.9 1195.97C4568.02 1192.18 4562.24 1190.29 4554.58 1190.29H4462.22L4346.77 1398.1Z" fill="#AB4559"/>
<path d="M5016.18 3394.78H5137.4C5141.18 3394.78 5145.06 3393.65 5148.94 3391.75C5152.73 3389.86 5156.61 3387.03 5160.49 3383.24C5164.28 3379.27 5167.11 3373.59 5169.1 3365.83C5170.99 3358.07 5172.03 3348.6 5172.03 3337.06V2621.47H4981.54V3354.28C4981.54 3365.83 4983.44 3374.53 4987.32 3380.21C4991.1 3386.08 4994.98 3389.86 4998.86 3391.75C5002.64 3393.65 5008.42 3394.78 5016.18 3394.78ZM5172.03 1253.32C5172.03 1241.96 5170.99 1231.36 5169.1 1221.9C5167.11 1212.25 5164.28 1204.67 5160.49 1199C5156.61 1193.14 5151.78 1189.35 5146.01 1187.45C5140.24 1185.56 5133.52 1184.43 5125.85 1184.43H5021.95C5014.19 1184.43 5007.57 1186.51 5001.79 1190.29C4996.02 1194.08 4992.14 1198.81 4990.25 1204.67C4988.26 1210.36 4986.37 1216.03 4984.48 1221.9C4982.49 1227.58 4981.54 1236.09 4981.54 1247.64V2275.13H5172.03V1253.32ZM5177.8 3446.64H4970C4958.46 3446.64 4946.91 3445.69 4935.46 3443.8C4923.91 3441.72 4913.22 3436.99 4903.66 3429.42C4894.01 3421.85 4886.35 3411.25 4880.57 3398C4874.8 3384.56 4871.96 3368.29 4871.96 3349.17V2569.42H5050.82V2327.18H4871.96V1230.61C4871.96 1211.49 4874.8 1195.97 4880.57 1184.43C4886.35 1172.89 4893.07 1163.42 4900.82 1155.66C4908.49 1148.09 4918.15 1142.23 4929.68 1138.44C4941.13 1134.65 4954.57 1132.57 4970 1132.57H5131.63C5135.41 1132.57 5139.29 1131.63 5143.17 1129.73C5146.95 1127.84 5151.78 1123.86 5157.55 1118.19C5163.33 1112.32 5167.11 1104.75 5169.1 1095.1C5170.99 1085.44 5172.03 1071.06 5172.03 1051.75V953.721H5275.84V1063.3C5275.84 1074.84 5273 1084.5 5267.23 1092.25C5261.46 1100.02 5253.7 1106.64 5244.14 1112.32C5234.49 1118.19 5223.99 1123.1 5212.44 1126.89C5200.89 1130.68 5187.36 1132.57 5172.03 1132.57H5143.17C5166.26 1132.57 5185.47 1133.51 5200.89 1135.41C5216.23 1137.49 5229.75 1142.23 5241.3 1149.98C5252.85 1157.55 5261.46 1168.15 5267.23 1181.59C5273 1195.21 5275.84 1211.49 5275.84 1230.61V2327.18H5102.77V2569.42H5275.84V3349.17C5275.84 3368.29 5273.95 3383.62 5270.16 3395.16C5266.29 3406.52 5259.47 3416.17 5249.91 3423.74C5240.26 3431.31 5229.75 3437.18 5218.21 3440.97C5206.67 3444.75 5193.14 3446.64 5177.8 3446.64Z" fill="#AB4559"/>
<path d="M1755.75 2820.76V3419.85H1685.45V2653.44H1755.75V2742.32L1803.89 2653.44H1877.96C1885.36 2653.44 1892.1 2655.99 1898.3 2660.85C1904.43 2665.83 1909.41 2672.02 1913.11 2679.3C1916.81 2686.71 1919.24 2693.63 1920.51 2699.7C1921.73 2705.89 1922.4 2711.48 1922.4 2716.33V2734.91C1922.4 2715.12 1924.83 2699.1 1929.8 2686.71C1934.72 2674.44 1940.25 2665.83 1946.44 2660.85C1952.57 2655.99 1961.79 2653.44 1974.18 2653.44H2066.76H2092.69C2100.1 2653.44 2108.05 2655.26 2116.73 2659.02C2125.35 2662.67 2132.76 2668.86 2138.95 2677.48C2145.08 2686.23 2148.24 2697.88 2148.24 2712.69V3419.85H2077.88V2712.81C2077.88 2707.83 2077.21 2703.59 2076 2699.82C2074.72 2696.18 2072.9 2693.63 2070.47 2692.41C2067.98 2691.08 2065.49 2689.86 2063.06 2688.65C2060.58 2687.44 2058.08 2686.71 2055.66 2686.71H1981.59C1976.62 2686.71 1972.91 2688.04 1970.48 2690.47C1967.99 2693.02 1965.5 2696.18 1963.07 2699.82C1960.59 2703.59 1959.37 2707.83 1959.37 2712.81V3419.85H1889.06V2723.99V2714.75C1889.06 2710.99 1888.4 2707.23 1887.19 2703.59C1885.91 2699.82 1883.48 2696.06 1879.77 2692.41C1876.07 2688.65 1871.76 2686.71 1866.85 2686.71H1829.81L1755.75 2820.76Z" fill="#AB4559"/>
<path d="M2445.29 3460.53C2450.21 3460.53 2455.12 3461.74 2460.1 3464.29C2465.02 3466.72 2469.39 3469.75 2473.09 3473.52C2476.8 3477.16 2479.83 3481.53 2482.33 3486.51C2484.75 3491.37 2486.03 3496.35 2486.03 3501.33C2486.03 3506.18 2484.75 3511.16 2482.33 3516.14C2479.83 3520.99 2476.8 3525.37 2473.09 3529.01C2469.39 3532.77 2465.02 3535.81 2460.1 3538.24C2455.12 3540.67 2450.21 3542 2445.29 3542C2440.31 3542 2435.39 3540.67 2430.48 3538.24C2425.5 3535.81 2421.25 3532.77 2417.54 3529.01C2413.84 3525.37 2410.68 3520.99 2408.25 3516.14C2405.77 3511.16 2404.55 3506.18 2404.55 3501.33C2404.55 3496.35 2405.77 3491.37 2408.25 3486.51C2410.68 3481.53 2413.84 3477.16 2417.54 3473.52C2421.25 3469.75 2425.5 3466.72 2430.48 3464.29C2435.39 3461.74 2440.31 3460.53 2445.29 3460.53ZM2386.04 3386.46H2504.54V3142.16C2504.54 3134.75 2503.88 3128.56 2502.66 3123.58C2501.38 3118.72 2499.56 3115.69 2497.14 3114.36C2494.64 3113.14 2492.77 3112.54 2491.55 3112.54H2482.33H2404.55C2399.57 3112.54 2395.87 3113.75 2393.44 3116.17C2390.95 3118.72 2389.13 3121.76 2387.92 3125.53C2386.64 3129.17 2386.04 3133.54 2386.04 3138.4V3386.46ZM2574.9 3419.85H2356.47C2349.06 3419.85 2342.87 3419.24 2337.95 3418.03C2332.97 3416.7 2328.66 3413.66 2324.96 3408.68C2321.26 3403.82 2318.77 3397.02 2317.55 3388.4C2316.28 3379.79 2315.74 3369.22 2315.74 3356.84V3138.4C2315.74 3126.13 2316.94 3116.17 2319.44 3108.77C2321.87 3101.36 2326.18 3095.29 2332.36 3090.31C2338.5 3085.46 2345.36 3082.3 2352.76 3081.09C2360.18 3079.87 2368.79 3079.26 2378.63 3079.26H2504.54V2712.7C2504.54 2710.27 2503.88 2707.11 2502.66 2703.46C2501.38 2699.7 2499.56 2696.67 2497.14 2694.12C2494.64 2691.69 2492.16 2689.87 2489.73 2688.65C2487.24 2687.44 2484.75 2686.71 2482.33 2686.71H2382.34C2379.9 2686.71 2377.41 2687.44 2374.99 2688.65C2372.49 2689.87 2370.01 2691.69 2367.58 2694.12C2365.09 2696.67 2362.6 2700.31 2360.18 2705.29C2357.68 2710.27 2356.47 2717.68 2356.47 2727.51V2749.72H2363.88C2368.79 2749.72 2373.71 2750.94 2378.63 2753.37C2383.54 2755.92 2387.92 2758.96 2391.62 2762.72C2395.33 2766.36 2398.36 2770.73 2400.85 2775.59C2403.28 2780.57 2404.55 2785.55 2404.55 2790.41C2404.55 2797.81 2403.28 2804 2400.85 2808.98C2398.36 2813.96 2395.33 2818.21 2391.62 2821.85C2387.92 2825.61 2383.54 2828.04 2378.63 2829.26C2373.71 2830.59 2368.79 2831.2 2363.88 2831.2C2358.9 2831.2 2353.98 2829.98 2349.06 2827.44C2344.08 2825.01 2339.77 2821.85 2336.07 2818.21C2332.36 2814.45 2329.27 2810.19 2326.84 2805.22C2324.35 2800.36 2323.14 2794.17 2323.14 2786.76V2653.44H2511.95C2519.35 2653.44 2526.76 2654.78 2534.17 2657.21C2541.58 2659.63 2548.32 2663.4 2554.5 2668.26C2560.64 2673.23 2565.62 2678.82 2569.32 2684.89C2573.03 2691.08 2574.9 2697.88 2574.9 2705.29V3419.85Z" fill="#AB4559"/>
<path d="M2812.7 2823.8V3419.85H2742.4V2653.44H2812.7V2742.32L2860.84 2653.44H2968.24C2978.08 2653.44 2986.76 2654.78 2994.17 2657.21C3001.57 2659.64 3008.31 2664 3014.51 2670.08C3020.64 2676.27 3024.95 2683.07 3027.44 2690.48C3029.86 2697.88 3031.14 2706.5 3031.14 2716.34V3419.85H2964.54V2727.51V2714.52C2964.54 2710.87 2963.87 2707.11 2962.66 2703.47C2961.39 2699.7 2959.56 2696.67 2957.13 2694.12C2954.65 2691.69 2950.95 2690.48 2946.02 2690.48H2886.77L2812.7 2823.8Z" fill="#AB4559"/>
<path d="M3443.06 3386.46H3543.05V2727.51C3543.05 2720.11 3541.77 2713.3 3539.34 2707.11C3536.85 2701.04 3534.36 2696.67 3531.93 2694.12C3529.45 2691.69 3526.95 2689.86 3524.53 2688.66C3522.04 2687.44 3519.55 2686.71 3517.12 2686.71H3443.06C3440.57 2686.71 3438.08 2687.44 3435.65 2688.66C3433.16 2689.86 3430.67 2691.69 3428.24 2694.12C3425.76 2696.67 3423.93 2699.7 3422.72 2703.47C3421.44 2707.11 3420.83 2711.48 3420.83 2716.34V3356.83C3420.83 3361.81 3421.44 3366.19 3422.72 3369.82C3423.93 3373.59 3425.76 3376.63 3428.24 3379.05C3430.67 3381.61 3433.16 3383.42 3435.65 3384.64C3438.08 3385.97 3440.57 3386.46 3443.06 3386.46ZM3609.71 3419.85H3413.43C3406.08 3419.85 3398.68 3418.64 3391.27 3416.09C3383.86 3413.66 3377 3410.02 3370.87 3405.04C3364.68 3400.06 3359.76 3393.87 3356.06 3386.46C3352.36 3379.05 3350.53 3370.43 3350.53 3360.6V2716.34C3350.53 2706.5 3352.36 2697.88 3356.06 2690.47C3359.76 2683.07 3364.07 2676.27 3369.05 2670.08C3373.97 2664 3380.7 2659.63 3389.39 2657.21C3398.01 2654.78 3406.08 2653.44 3413.43 2653.44H3543.05V2392.78H3609.71V3419.85ZM3672.61 2477.83H3324.62V2444.55H3672.61V2477.83Z" fill="#AB4559"/>
<path d="M3841.43 3386.46H3959.94V3142.16C3959.94 3134.76 3959.28 3128.56 3958.06 3123.58C3956.78 3118.73 3954.97 3115.69 3952.54 3114.36C3950.05 3113.14 3948.16 3112.53 3946.95 3112.53H3937.72H3859.95C3854.98 3112.53 3851.27 3113.75 3848.85 3116.18C3846.35 3118.73 3844.53 3121.76 3843.32 3125.52C3842.04 3129.17 3841.43 3133.54 3841.43 3138.4V3386.46ZM4030.3 3419.85H3811.87C3804.46 3419.85 3798.27 3419.24 3793.35 3418.03C3788.37 3416.69 3784.06 3413.66 3780.36 3408.68C3776.66 3403.82 3774.16 3397.03 3772.96 3388.4C3771.68 3379.78 3771.13 3369.22 3771.13 3356.83V3138.4C3771.13 3126.13 3772.35 3116.18 3774.84 3108.77C3777.27 3101.36 3781.58 3095.29 3787.77 3090.31C3793.9 3085.46 3800.76 3082.3 3808.16 3081.09C3815.57 3079.87 3824.19 3079.26 3834.03 3079.26H3959.94V2712.69C3959.94 2710.26 3959.28 2707.11 3958.06 2703.47C3956.78 2699.7 3954.97 2696.67 3952.54 2694.12C3950.05 2691.69 3947.56 2689.86 3945.13 2688.66C3942.64 2687.44 3940.15 2686.71 3937.72 2686.71H3837.73C3835.3 2686.71 3832.82 2687.44 3830.39 2688.66C3827.9 2689.86 3825.41 2691.69 3822.98 2694.12C3820.49 2696.67 3818 2700.31 3815.57 2705.28C3813.08 2710.26 3811.87 2717.67 3811.87 2727.51V2749.73H3819.27C3824.19 2749.73 3829.11 2750.94 3834.03 2753.37C3838.95 2755.92 3843.32 2758.96 3847.02 2762.72C3850.72 2766.36 3853.76 2770.73 3856.25 2775.59C3858.68 2780.57 3859.95 2785.54 3859.95 2790.41C3859.95 2797.81 3858.68 2804 3856.25 2808.98C3853.76 2813.96 3850.72 2818.21 3847.02 2821.85C3843.32 2825.62 3838.95 2828.04 3834.03 2829.26C3829.11 2830.59 3824.19 2831.2 3819.27 2831.2C3814.29 2831.2 3809.38 2829.99 3804.46 2827.43C3799.48 2825.01 3795.17 2821.85 3791.47 2818.21C3787.77 2814.44 3784.67 2810.2 3782.25 2805.22C3779.75 2800.36 3778.54 2794.17 3778.54 2786.76V2653.44H3967.35C3974.75 2653.44 3982.16 2654.78 3989.57 2657.21C3996.98 2659.63 4003.71 2663.39 4009.91 2668.26C4016.04 2673.24 4021.01 2678.82 4024.72 2684.89C4028.42 2691.08 4030.3 2697.88 4030.3 2705.28V3419.85ZM4082.09 2588.67H3719.29V2555.28H4082.09V2588.67Z" fill="#AB4559"/>
<path d="M4274.09 2820.76V3419.85H4203.79V2653.44H4274.09V2742.32L4322.23 2653.44H4396.3C4403.7 2653.44 4410.44 2655.99 4416.64 2660.85C4422.77 2665.83 4427.75 2672.02 4431.45 2679.3C4435.15 2686.71 4437.58 2693.63 4438.86 2699.7C4440.07 2705.89 4440.74 2711.48 4440.74 2716.33V2734.91C4440.74 2715.12 4443.16 2699.1 4448.14 2686.71C4453.06 2674.44 4458.58 2665.83 4464.78 2660.85C4470.91 2655.99 4480.14 2653.44 4492.53 2653.44H4585.11H4611.03C4618.44 2653.44 4626.39 2655.26 4635.08 2659.02C4643.7 2662.67 4651.1 2668.86 4657.29 2677.48C4663.43 2686.23 4666.58 2697.88 4666.58 2712.69V3419.85H4596.22V2712.81C4596.22 2707.83 4595.55 2703.59 4594.34 2699.82C4593.06 2696.18 4591.24 2693.63 4588.82 2692.41C4586.32 2691.08 4583.84 2689.86 4581.41 2688.65C4578.92 2687.44 4576.43 2686.71 4574 2686.71H4499.93C4494.95 2686.71 4491.25 2688.04 4488.82 2690.47C4486.33 2693.02 4483.85 2696.18 4481.42 2699.82C4478.93 2703.59 4477.71 2707.83 4477.71 2712.81V3419.85H4407.41V2723.99V2714.75C4407.41 2710.99 4406.74 2707.23 4405.53 2703.59C4404.25 2699.82 4401.83 2696.06 4398.12 2692.41C4394.42 2688.65 4390.11 2686.71 4385.19 2686.71H4348.15L4274.09 2820.76Z" fill="#AB4559"/>
<path d="M957.302 489.86C1045.91 481.842 1142.41 546.168 1177.55 642.748C1267.27 849.996 1028.27 1087.75 821.5 996.808C725.03 961.223 661.185 864.122 669.961 775.52C891.65 1096.55 1277.39 713.033 957.302 489.86Z" fill="#AB4559"/>
<path d="M448.958 2319.94H322.373L0 -0.000732422H126.585L420.264 2112.64L667.775 -0.000732422H719.601L448.958 2319.94Z" fill="#AB4559"/>
<path d="M833.817 2268.02H1018.08V1888.16C1018.08 1876.64 1017.04 1867.01 1015.16 1859.28C1013.17 1851.72 1010.34 1847 1006.57 1844.92C1002.69 1843.03 999.766 1842.1 997.88 1842.1H983.533H862.606C854.864 1842.1 849.111 1843.98 845.331 1847.75C841.464 1851.72 838.631 1856.44 836.744 1862.29C834.764 1867.96 833.817 1874.75 833.817 1882.3V2268.02ZM1127.49 2319.94H787.847C776.325 2319.94 766.697 2318.99 759.049 2317.11C751.315 2315.03 744.607 2310.31 738.854 2302.57C733.093 2295.02 729.226 2284.44 727.332 2271.04C725.351 2257.63 724.507 2241.21 724.507 2221.95V1882.3C724.507 1863.24 726.393 1847.75 730.26 1836.24C734.04 1824.73 740.74 1815.28 750.368 1807.55C759.902 1799.99 770.571 1795.08 782.086 1793.19C793.6 1791.3 807.008 1790.36 822.302 1790.36H1018.08V1220.38C1018.08 1216.6 1017.04 1211.7 1015.16 1206.04C1013.17 1200.18 1010.34 1195.46 1006.57 1191.5C1002.69 1187.72 998.827 1184.89 995.047 1183C991.18 1181.12 987.305 1179.98 983.533 1179.98H828.056C824.283 1179.98 820.408 1181.12 816.636 1183C812.769 1184.89 808.894 1187.72 805.122 1191.5C801.247 1195.46 797.38 1201.13 793.6 1208.87C789.733 1216.6 787.847 1228.13 787.847 1243.41V1277.96H799.361C807.008 1277.96 814.655 1279.86 822.302 1283.63C829.95 1287.59 836.744 1292.32 842.498 1298.17C848.259 1303.83 852.978 1310.63 856.853 1318.18C860.625 1325.92 862.606 1333.66 862.606 1341.22C862.606 1352.73 860.625 1362.36 856.853 1370.1C852.978 1377.84 848.259 1384.45 842.498 1390.11C836.744 1395.96 829.95 1399.74 822.302 1401.63C814.655 1403.7 807.008 1404.65 799.361 1404.65C791.619 1404.65 783.972 1402.77 776.325 1398.8C768.591 1395.02 761.883 1390.11 756.129 1384.45C750.368 1378.59 745.554 1371.99 741.774 1364.25C737.907 1356.69 736.021 1347.06 736.021 1335.55V1128.25H1029.6C1041.12 1128.25 1052.63 1130.33 1064.15 1134.1C1075.66 1137.88 1086.14 1143.73 1095.77 1151.28C1105.3 1159.03 1113.05 1167.71 1118.81 1177.15C1124.57 1186.78 1127.49 1197.35 1127.49 1208.87V2319.94Z" fill="#AB4559"/>
<path d="M1398.04 1393.14V2319.94H1288.73V1128.26H1398.04V1266.46L1472.81 1128.26H1639.89C1655.18 1128.26 1668.59 1130.33 1680.1 1134.11C1691.62 1137.88 1702.19 1144.68 1711.82 1154.12C1721.26 1163.74 1728.06 1174.32 1731.83 1185.83C1735.61 1197.36 1737.69 1210.76 1737.69 1226.05V2319.94H1634.04V1243.42V1223.22C1634.04 1217.56 1633.09 1211.7 1631.2 1206.04C1629.13 1200.19 1626.3 1195.47 1622.52 1191.5C1618.74 1187.73 1612.89 1185.83 1605.34 1185.83H1513.21L1398.04 1393.14Z" fill="#AB4559"/>
</svg>
