<svg width="1981" height="3200" viewBox="0 0 1981 3200" fill="none" xmlns="http://www.w3.org/2000/svg">
<path d="M345.855 2351.79V2450.13H196.621C187.559 2450.13 179.054 2449.01 171.151 2446.67C163.193 2444.46 157.585 2441.12 154.185 2436.55C150.797 2431.99 147.955 2426.32 145.736 2419.53C143.451 2412.75 142.336 2404.85 142.336 2395.84V1805.6C142.336 1796.59 143.451 1788.69 145.736 1781.91C147.955 1775.12 151.912 1768.89 157.585 1763.22C163.193 1757.65 169.478 1753.65 176.267 1751.42C183.055 1749.2 190.947 1747.98 200.02 1747.98H356.032V1873.46C356.032 1878.02 354.862 1882.58 352.643 1887.03C350.358 1891.58 347.527 1895.49 344.127 1898.93C340.739 1902.26 336.793 1905.16 332.278 1907.39C327.72 1909.72 323.216 1910.83 318.712 1910.83C314.154 1910.83 309.65 1909.72 305.136 1907.39C300.577 1905.16 296.686 1902.26 293.297 1898.93C289.897 1895.49 287.012 1891.58 284.782 1887.03C282.508 1882.58 281.393 1878.02 281.393 1873.46C281.393 1869.01 282.508 1864.44 284.782 1859.88C287.012 1855.43 289.897 1851.43 293.297 1848.1C296.686 1844.64 300.577 1841.87 305.136 1839.53C309.65 1837.3 314.154 1836.19 318.712 1836.19H325.501V1815.83C325.501 1809.05 324.331 1802.82 322.101 1797.15C319.827 1791.58 318.1 1787.58 316.985 1785.24C315.815 1783.01 314.154 1781.35 311.924 1780.24C309.65 1779.12 307.366 1778.46 305.136 1778.46H223.708C221.435 1778.46 219.15 1779.12 216.931 1780.24C214.646 1781.35 212.416 1783.57 210.143 1787.03C207.913 1790.36 206.197 1795.48 205.082 1802.26C203.912 1809.05 203.409 1816.94 203.409 1825.95V2385.61C203.409 2392.39 203.912 2398.06 205.082 2402.63C206.197 2407.19 207.301 2410.52 208.47 2412.75C209.585 2415.08 211.312 2416.76 213.531 2417.87C215.761 2419.09 218.035 2419.53 220.32 2419.53H315.324V2351.79H345.855Z" fill="#AB4559"/>
<path d="M481.513 1815.84V2450.12H417.051V1083.21H481.513V1747.98H603.604C612.612 1747.98 620.559 1749.2 627.347 1751.43C634.135 1753.65 640.311 1757.66 645.985 1763.22C651.603 1768.9 655.604 1775.12 657.889 1781.91C660.108 1788.69 661.278 1796.6 661.278 1805.61V2450.12H600.204V1812.39C600.204 1805.61 599.035 1800.04 596.816 1795.48C594.531 1790.92 592.257 1787.58 590.027 1785.25C587.743 1783.02 585.469 1781.35 583.239 1780.24C580.965 1779.13 578.681 1778.46 576.462 1778.46H501.812C499.538 1778.46 497.254 1779.13 495.024 1780.24C492.75 1781.35 490.52 1783.02 488.246 1785.25C486.016 1787.58 484.289 1791.59 483.185 1797.14C482.015 1802.82 481.513 1809.05 481.513 1815.84Z" fill="#AB4559"/>
<path d="M966.574 1747.98H936.043L963.186 1710.71C958.616 1708.48 954.67 1706.16 951.282 1703.93C947.882 1701.71 945.051 1698.81 942.821 1695.37C940.547 1692.02 938.82 1688.58 937.705 1685.24C936.535 1681.79 936.043 1677.9 936.043 1673.34C936.043 1668.89 937.147 1664.32 939.432 1659.76C941.651 1655.31 944.493 1651.31 947.882 1647.97C951.282 1644.53 955.228 1641.75 959.786 1639.41C964.29 1637.18 968.804 1636.08 973.363 1636.08C977.866 1636.08 982.37 1637.18 986.874 1639.41C991.378 1641.75 995.389 1644.53 998.778 1647.97C1002.17 1651.31 1004.95 1655.31 1007.23 1659.76C1009.46 1664.32 1010.63 1668.89 1010.63 1673.34V1680.12C1010.63 1682.46 1010.07 1684.69 1008.96 1686.91C1007.79 1689.25 1007.23 1690.92 1007.23 1692.02C1007.23 1693.14 1006.07 1694.92 1003.84 1697.14L966.574 1747.98ZM908.901 2450.13H783.421C774.348 2450.13 766.455 2449.01 759.667 2446.69C752.879 2444.46 746.593 2440.56 740.975 2434.89C735.301 2429.22 731.355 2423.54 729.136 2417.87C726.851 2412.31 725.736 2405.97 725.736 2399.18V1747.98H790.143V2392.39C790.143 2396.96 790.701 2400.4 791.871 2402.63C792.986 2404.85 794.101 2407.75 795.259 2411.08C796.374 2414.54 798.659 2416.76 802.048 2417.87C805.447 2419.09 808.224 2419.54 810.508 2419.54H881.759C883.978 2419.54 886.874 2419.09 890.208 2417.87C893.597 2416.76 895.827 2414.54 896.997 2411.08C898.101 2407.75 899.216 2404.85 900.385 2402.63C901.5 2400.4 902.113 2396.96 902.113 2392.39V1747.98H966.574V2399.18C966.574 2405.97 964.847 2412.31 961.459 2417.87C958.07 2423.54 953.501 2429.22 947.882 2434.89C942.209 2440.56 936.043 2444.46 929.255 2446.69C922.467 2449.01 915.678 2450.13 908.901 2450.13Z" fill="#AB4559"/>
<path d="M1236.56 1747.98H1207.36L1233.34 1710.71C1229 1708.48 1225.16 1706.16 1221.93 1703.93C1218.71 1701.71 1215.98 1698.81 1213.81 1695.37C1211.64 1692.02 1210.03 1688.58 1208.97 1685.24C1207.87 1681.79 1207.36 1677.9 1207.36 1673.34C1207.36 1668.89 1208.41 1664.32 1210.59 1659.76C1212.7 1655.31 1215.42 1651.31 1218.71 1647.97C1221.93 1644.53 1225.72 1641.75 1230.06 1639.41C1234.4 1637.18 1238.67 1636.08 1243.01 1636.08C1247.35 1636.08 1251.69 1637.18 1256.03 1639.41C1260.31 1641.75 1264.04 1644.53 1267.38 1647.97C1270.6 1651.31 1273.32 1655.31 1275.61 1659.76C1277.83 1664.32 1279 1668.89 1279 1673.34V1680.12C1279 1682.46 1278.44 1684.69 1277.33 1686.91C1276.16 1689.25 1275.61 1690.92 1275.61 1692.02C1275.61 1693.14 1274.44 1694.92 1272.22 1697.14L1236.56 1747.98ZM1115.26 2419.54H1201.13C1205.53 2419.54 1208.81 2418.43 1211.04 2416.2C1213.2 2413.98 1215.37 2409.97 1217.6 2404.29C1219.81 2398.74 1220.93 2392.39 1220.93 2385.61V1815.84C1220.93 1809.05 1220.32 1803.38 1219.27 1798.82C1218.15 1794.37 1217.04 1790.36 1215.92 1787.03C1214.82 1783.57 1212.59 1781.35 1209.31 1780.24C1206.03 1779.12 1201.08 1778.46 1194.45 1778.46H1121.87C1117.42 1778.46 1113.53 1779.12 1110.25 1780.24C1106.97 1781.35 1104.24 1783.02 1102.02 1785.24C1099.79 1787.58 1098.13 1791.58 1097.07 1797.15C1095.95 1802.82 1095.45 1809.05 1095.45 1815.84V2385.61C1095.45 2394.73 1096.51 2401.52 1098.74 2405.97C1100.96 2410.52 1103.12 2413.98 1105.35 2416.2C1107.52 2418.43 1110.81 2419.54 1115.26 2419.54ZM1225.1 2450.13H1101.3C1092.33 2450.13 1083.99 2449.57 1076.21 2448.46C1068.36 2447.23 1061.69 2444.46 1056.07 2439.9C1050.51 2435.45 1045.5 2429.77 1041.05 2422.99C1036.61 2416.2 1034.39 2407.19 1034.39 2395.84V1805.6C1034.39 1796.59 1035.49 1788.7 1037.72 1781.91C1039.94 1775.12 1043.78 1768.89 1049.4 1763.22C1054.96 1757.65 1061.14 1753.65 1067.8 1751.42C1074.48 1749.2 1082.33 1747.98 1091.23 1747.98H1225.1C1234 1747.98 1241.79 1749.2 1248.47 1751.42C1255.13 1753.65 1261.31 1757.65 1266.93 1763.22C1272.49 1768.89 1276.44 1775.12 1278.67 1781.91C1280.89 1788.7 1282 1796.59 1282 1805.6V2395.84C1282 2404.85 1280.89 2412.75 1278.67 2419.54C1276.44 2426.32 1272.49 2431.99 1266.93 2436.56C1261.31 2441.12 1255.13 2444.46 1248.47 2446.69C1241.79 2449.01 1234 2450.13 1225.1 2450.13Z" fill="#AB4559"/>
<path d="M1434.56 1904.05V2450.13H1370.16V1747.98H1434.56V1829.41L1478.67 1747.98H1577.06C1586.07 1747.98 1594.03 1749.21 1600.82 1751.43C1607.59 1753.66 1613.77 1757.66 1619.44 1763.22C1625.06 1768.9 1629.01 1775.13 1631.29 1781.9C1633.51 1788.69 1634.68 1796.59 1634.68 1805.6V2450.13H1573.67V1815.83V1803.93C1573.67 1800.6 1573.06 1797.15 1571.95 1793.81C1570.78 1790.36 1569.11 1787.58 1566.89 1785.25C1564.6 1783.02 1561.21 1781.9 1556.71 1781.9H1502.42L1434.56 1904.05Z" fill="#AB4559"/>
<path d="M1828.02 3077.63H1899.27C1901.49 3077.63 1903.78 3076.97 1906.06 3075.85C1908.28 3074.74 1910.57 3073.08 1912.84 3070.85C1915.07 3068.52 1916.74 3065.17 1917.9 3060.61C1919.01 3056.06 1919.63 3050.49 1919.63 3043.7V2623.1H1807.67V3053.83C1807.67 3060.61 1808.77 3065.73 1811.06 3069.06C1813.29 3072.52 1815.56 3074.74 1817.85 3075.85C1820.06 3076.97 1823.46 3077.63 1828.02 3077.63ZM1919.63 1818.95C1919.63 1812.27 1919.01 1806.04 1917.9 1800.49C1916.74 1794.82 1915.07 1790.36 1912.84 1787.02C1910.57 1783.58 1907.72 1781.35 1904.33 1780.23C1900.95 1779.13 1896.99 1778.46 1892.48 1778.46H1831.41C1826.85 1778.46 1822.96 1779.69 1819.57 1781.91C1816.17 1784.14 1813.9 1786.91 1812.78 1790.36C1811.62 1793.7 1810.5 1797.03 1809.39 1800.49C1808.23 1803.82 1807.67 1808.83 1807.67 1815.61V2419.54H1919.63V1818.95ZM1923.03 3108.11H1800.88C1794.09 3108.11 1787.3 3107.55 1780.58 3106.45C1773.79 3105.23 1767.51 3102.44 1761.89 3097.99C1756.22 3093.54 1751.71 3087.31 1748.32 3079.53C1744.92 3071.62 1743.26 3062.06 1743.26 3050.83V2592.52H1848.38V2450.12H1743.26V1805.6C1743.26 1794.37 1744.92 1785.24 1748.32 1778.46C1751.71 1771.67 1755.66 1766.11 1760.23 1761.55C1764.73 1757.1 1770.4 1753.65 1777.18 1751.43C1783.92 1749.2 1791.82 1747.97 1800.88 1747.97H1895.88C1898.1 1747.97 1900.39 1747.42 1902.66 1746.31C1904.89 1745.2 1907.72 1742.86 1911.12 1739.52C1914.51 1736.07 1916.74 1731.62 1917.9 1725.95C1919.01 1720.28 1919.63 1711.83 1919.63 1700.48V1642.86H1980.65V1707.27C1980.65 1714.06 1978.97 1719.72 1975.58 1724.29C1972.2 1728.85 1967.63 1732.74 1962.01 1736.07C1956.33 1739.53 1950.17 1742.41 1943.38 1744.64C1936.59 1746.87 1928.63 1747.97 1919.63 1747.97H1902.66C1916.24 1747.97 1927.53 1748.53 1936.59 1749.65C1945.6 1750.87 1953.56 1753.65 1960.35 1758.22C1967.12 1762.67 1972.2 1768.89 1975.58 1776.79C1978.97 1784.8 1980.65 1794.37 1980.65 1805.6V2450.12H1878.92V2592.52H1980.65V3050.83C1980.65 3062.06 1979.53 3071.08 1977.31 3077.85C1975.03 3084.53 1971.03 3090.21 1965.41 3094.65C1959.73 3099.1 1953.56 3102.55 1946.77 3104.78C1939.98 3107.01 1932.03 3108.11 1923.03 3108.11Z" fill="#AB4559"/>
<path d="M166.871 2776.07V3128.2H125.551V2677.72H166.871V2729.97L195.172 2677.72H238.701C243.051 2677.72 247.019 2679.23 250.659 2682.09C254.256 2685 257.185 2688.65 259.361 2692.93C261.536 2697.28 262.968 2701.35 263.711 2704.92C264.433 2708.56 264.826 2711.84 264.826 2714.69V2725.61C264.826 2713.98 266.247 2704.56 269.177 2697.28C272.063 2690.08 275.309 2685 278.95 2682.09C282.557 2679.23 287.979 2677.72 295.259 2677.72H349.675H364.913C369.264 2677.72 373.942 2678.8 379.047 2681.02C384.108 2683.16 388.47 2686.8 392.11 2691.86C395.707 2697 397.565 2703.85 397.565 2712.55V3128.2H356.212V2712.63C356.212 2709.7 355.818 2707.21 355.108 2704.99C354.354 2702.86 353.282 2701.35 351.85 2700.64C350.396 2699.85 348.932 2699.14 347.5 2698.43C346.035 2697.71 344.581 2697.28 343.149 2697.28H299.61C296.691 2697.28 294.516 2698.07 293.084 2699.5C291.619 2701 290.154 2702.86 288.733 2704.99C287.268 2707.21 286.558 2709.7 286.558 2712.63V3128.2H245.237V2719.2V2713.77C245.237 2711.56 244.844 2709.35 244.122 2707.21C243.379 2704.99 241.947 2702.78 239.772 2700.64C237.596 2698.43 235.06 2697.28 232.175 2697.28H210.41L166.871 2776.07Z" fill="#AB4559"/>
<path d="M532.448 3152.11C535.334 3152.11 538.231 3152.82 541.16 3154.32C544.046 3155.75 546.615 3157.53 548.79 3159.75C550.966 3161.88 552.748 3164.45 554.212 3167.38C555.644 3170.23 556.388 3173.16 556.388 3176.09C556.388 3178.95 555.644 3181.86 554.212 3184.79C552.748 3187.65 550.966 3190.22 548.79 3192.36C546.615 3194.58 544.046 3196.36 541.16 3197.78C538.231 3199.21 535.334 3200 532.448 3200C529.519 3200 526.633 3199.21 523.747 3197.78C520.817 3196.36 518.314 3194.58 516.139 3192.36C513.963 3190.22 512.105 3187.65 510.684 3184.79C509.219 3181.86 508.509 3178.95 508.509 3176.09C508.509 3173.16 509.219 3170.23 510.684 3167.38C512.105 3164.45 513.963 3161.88 516.139 3159.75C518.314 3157.53 520.817 3155.75 523.747 3154.32C526.633 3152.82 529.519 3152.11 532.448 3152.11ZM497.621 3108.57H567.275V2964.99C567.275 2960.63 566.882 2956.99 566.171 2954.07C565.417 2951.21 564.346 2949.42 562.925 2948.65C561.46 2947.92 560.356 2947.57 559.634 2947.57H554.212H508.509C505.579 2947.57 503.404 2948.29 501.972 2949.72C500.507 2951.21 499.436 2953 498.725 2955.2C497.982 2957.35 497.621 2959.92 497.621 2962.77V3108.57ZM608.628 3128.2H480.24C475.89 3128.2 472.25 3127.84 469.364 3127.13C466.434 3126.34 463.898 3124.56 461.723 3121.63C459.547 3118.78 458.083 3114.78 457.372 3109.72C456.618 3104.65 456.301 3098.44 456.301 3091.16V2962.77C456.301 2955.57 457.011 2949.72 458.476 2945.36C459.908 2941.01 462.433 2937.44 466.073 2934.51C469.681 2931.66 473.714 2929.8 478.065 2929.09C482.416 2928.37 487.488 2928.02 493.27 2928.02H567.275V2712.56C567.275 2711.13 566.882 2709.27 566.171 2707.13C565.417 2704.92 564.346 2703.14 562.925 2701.64C561.46 2700.21 559.995 2699.14 558.574 2698.43C557.109 2697.72 555.644 2697.28 554.212 2697.28H495.446C494.014 2697.28 492.549 2697.72 491.128 2698.43C489.663 2699.14 488.198 2700.21 486.777 2701.64C485.312 2703.14 483.848 2705.28 482.416 2708.2C480.962 2711.13 480.24 2715.48 480.24 2721.26V2734.33H484.591C487.488 2734.33 490.374 2735.04 493.27 2736.47C496.156 2737.97 498.725 2739.75 500.9 2741.96C503.076 2744.1 504.868 2746.67 506.322 2749.52C507.754 2752.45 508.509 2755.38 508.509 2758.23C508.509 2762.58 507.754 2766.22 506.322 2769.15C504.868 2772.08 503.076 2774.58 500.9 2776.72C498.725 2778.93 496.156 2780.36 493.27 2781.07C490.374 2781.86 487.488 2782.22 484.591 2782.22C481.672 2782.22 478.776 2781.5 475.89 2780C472.96 2778.58 470.435 2776.72 468.249 2774.58C466.073 2772.37 464.259 2769.86 462.827 2766.94C461.362 2764.08 460.651 2760.44 460.651 2756.09V2677.74H571.626C575.987 2677.74 580.338 2678.51 584.689 2679.94C589.039 2681.38 593.007 2683.58 596.648 2686.44C600.244 2689.37 603.174 2692.65 605.349 2696.21C607.524 2699.85 608.628 2703.85 608.628 2708.2V3128.2Z" fill="#AB4559"/>
<path d="M710.869 2777.86V3128.21H669.549V2677.73H710.869V2729.97L739.17 2677.73H802.287C808.07 2677.73 813.175 2678.52 817.526 2679.95C821.876 2681.37 825.844 2683.94 829.484 2687.51C833.081 2691.15 835.617 2695.14 837.082 2699.49C838.514 2703.85 839.257 2708.92 839.257 2714.7V3128.21H800.112V2721.27V2713.63C800.112 2711.48 799.719 2709.28 799.008 2707.13C798.254 2704.93 797.183 2703.13 795.761 2701.64C794.297 2700.21 792.121 2699.49 789.236 2699.49H754.408L710.869 2777.86Z" fill="#AB4559"/>
<path d="M990.655 3108.57H1049.42V2721.27C1049.42 2716.91 1048.68 2712.92 1047.25 2709.28C1045.78 2705.7 1044.33 2703.13 1042.9 2701.63C1041.43 2700.21 1039.97 2699.14 1038.55 2698.42C1037.08 2697.71 1035.62 2697.28 1034.19 2697.28H990.655C989.191 2697.28 987.726 2697.71 986.305 2698.42C984.84 2699.14 983.375 2700.21 981.943 2701.63C980.489 2703.13 979.418 2704.92 978.697 2707.13C977.953 2709.28 977.592 2711.84 977.592 2714.7V3091.16C977.592 3094.09 977.953 3096.66 978.697 3098.8C979.418 3101.01 980.489 3102.79 981.943 3104.22C983.375 3105.72 984.84 3106.79 986.305 3107.5C987.726 3108.29 989.191 3108.57 990.655 3108.57ZM1088.61 3128.2H973.242C968.924 3128.2 964.573 3127.48 960.212 3125.99C955.861 3124.56 951.827 3122.42 948.231 3119.49C944.591 3116.56 941.694 3112.92 939.519 3108.57C937.343 3104.22 936.272 3099.15 936.272 3093.37V2714.7C936.272 2708.91 937.343 2703.85 939.519 2699.49C941.694 2695.14 944.23 2691.14 947.16 2687.5C950.046 2683.94 954.003 2681.37 959.108 2679.94C964.18 2678.51 968.924 2677.73 973.242 2677.73H1049.42V2524.52H1088.61V3128.2ZM1125.58 2574.5H921.045V2554.95H1125.58V2574.5Z" fill="#AB4559"/>
<path d="M1193.02 3108.57H1262.67V2964.98C1262.67 2960.63 1262.28 2956.99 1261.57 2954.06C1260.81 2951.21 1259.74 2949.43 1258.32 2948.64C1256.85 2947.93 1255.75 2947.57 1255.03 2947.57H1249.61H1203.9C1200.97 2947.57 1198.8 2948.28 1197.37 2949.71C1195.9 2951.21 1194.83 2952.99 1194.12 2955.21C1193.38 2957.35 1193.02 2959.92 1193.02 2962.77V3108.57ZM1304.02 3128.2H1175.63C1171.28 3128.2 1167.64 3127.85 1164.76 3127.12C1161.83 3126.35 1159.29 3124.56 1157.12 3121.64C1154.94 3118.78 1153.48 3114.78 1152.77 3109.71C1152.01 3104.65 1151.7 3098.44 1151.7 3091.16V2962.77C1151.7 2955.56 1152.41 2949.71 1153.87 2945.36C1155.3 2941.01 1157.83 2937.43 1161.47 2934.5C1165.08 2931.65 1169.11 2929.8 1173.46 2929.08C1177.81 2928.37 1182.88 2928.01 1188.66 2928.01H1262.67V2712.55C1262.67 2711.13 1262.28 2709.28 1261.57 2707.13C1260.81 2704.92 1259.74 2703.13 1258.32 2701.63C1256.85 2700.21 1255.39 2699.14 1253.97 2698.42C1252.5 2697.71 1251.04 2697.28 1249.61 2697.28H1190.84C1189.41 2697.28 1187.94 2697.71 1186.52 2698.42C1185.06 2699.14 1183.59 2700.21 1182.17 2701.63C1180.71 2703.13 1179.24 2705.27 1177.81 2708.2C1176.36 2711.13 1175.63 2715.48 1175.63 2721.27V2734.32H1180C1182.88 2734.32 1185.77 2735.04 1188.66 2736.46C1191.55 2737.96 1194.12 2739.75 1196.29 2741.96C1198.47 2744.1 1200.26 2746.67 1201.73 2749.52C1203.15 2752.45 1203.9 2755.37 1203.9 2758.23C1203.9 2762.59 1203.15 2766.23 1201.73 2769.15C1200.26 2772.08 1198.47 2774.58 1196.29 2776.71C1194.12 2778.93 1191.55 2780.35 1188.66 2781.07C1185.77 2781.85 1182.88 2782.21 1180 2782.21C1177.07 2782.21 1174.17 2781.5 1171.28 2780C1168.35 2778.57 1165.83 2776.71 1163.64 2774.58C1161.47 2772.36 1159.65 2769.87 1158.22 2766.94C1156.76 2764.09 1156.05 2760.44 1156.05 2756.09V2677.73H1267.02C1271.38 2677.73 1275.73 2678.51 1280.08 2679.94C1284.43 2681.37 1288.4 2683.58 1292.04 2686.44C1295.64 2689.36 1298.57 2692.65 1300.74 2696.21C1302.92 2699.85 1304.02 2703.85 1304.02 2708.2V3128.2ZM1334.47 2639.65H1121.22V2620.03H1334.47V2639.65Z" fill="#AB4559"/>
<path d="M1406.26 2776.07V3128.2H1364.94V2677.72H1406.26V2729.97L1434.56 2677.72H1478.09C1482.44 2677.72 1486.41 2679.23 1490.05 2682.09C1493.65 2685 1496.58 2688.65 1498.75 2692.93C1500.93 2697.28 1502.36 2701.35 1503.1 2704.92C1503.83 2708.56 1504.22 2711.84 1504.22 2714.69V2725.61C1504.22 2713.98 1505.64 2704.56 1508.57 2697.28C1511.46 2690.08 1514.7 2685 1518.34 2682.09C1521.95 2679.23 1527.37 2677.72 1534.65 2677.72H1589.07H1604.31C1608.66 2677.72 1613.33 2678.8 1618.44 2681.02C1623.5 2683.16 1627.86 2686.8 1631.5 2691.86C1635.1 2697 1636.96 2703.85 1636.96 2712.55V3128.2H1595.6V2712.63C1595.6 2709.7 1595.21 2707.21 1594.5 2704.99C1593.75 2702.86 1592.67 2701.35 1591.24 2700.64C1589.79 2699.85 1588.32 2699.14 1586.89 2698.43C1585.43 2697.71 1583.97 2697.28 1582.54 2697.28H1539C1536.08 2697.28 1533.91 2698.07 1532.48 2699.5C1531.01 2701 1529.55 2702.86 1528.13 2704.99C1526.66 2707.21 1525.95 2709.7 1525.95 2712.63V3128.2H1484.63V2719.2V2713.77C1484.63 2711.56 1484.24 2709.35 1483.52 2707.21C1482.77 2704.99 1481.34 2702.78 1479.16 2700.64C1476.99 2698.43 1474.45 2697.28 1471.57 2697.28H1449.8L1406.26 2776.07Z" fill="#AB4559"/>
<path d="M562.674 287.908C614.762 283.197 671.473 321.008 692.133 377.775C744.866 499.582 604.388 639.327 482.854 585.873C426.153 564.962 388.626 507.89 393.786 455.813C524.086 644.509 750.812 419.084 562.674 287.908Z" fill="#AB4559"/>
<path d="M263.881 1363.58H189.472L0 -2.89941e-05H74.3983L247.014 1241.74L392.499 -2.89941e-05H422.953L263.881 1363.58Z" fill="#AB4559"/>
<path d="M490.094 1333.06H598.401V1109.79C598.401 1103.03 597.789 1097.36 596.685 1092.82C595.515 1088.38 593.854 1085.6 591.635 1084.39C589.361 1083.27 587.634 1082.71 586.53 1082.71H578.091H507.016C502.468 1082.71 499.079 1083.83 496.86 1086.05C494.587 1088.38 492.925 1091.15 491.81 1094.59C490.651 1097.92 490.094 1101.91 490.094 1106.36V1333.06ZM662.71 1363.58H463.072C456.305 1363.58 450.643 1363.03 446.15 1361.91C441.603 1360.7 437.657 1357.92 434.279 1353.37C430.89 1348.94 428.616 1342.72 427.512 1334.83C426.343 1326.96 425.84 1317.31 425.84 1305.99V1106.36C425.84 1095.14 426.955 1086.05 429.229 1079.28C431.448 1072.51 435.383 1066.96 441.045 1062.42C446.653 1057.97 452.917 1055.09 459.683 1053.98C466.461 1052.86 474.331 1052.32 483.327 1052.32H598.401V717.293C598.401 715.074 597.789 712.188 596.685 708.865C595.515 705.422 593.854 702.645 591.635 700.317C589.361 698.098 587.076 696.436 584.857 695.321C582.584 694.217 580.31 693.55 578.091 693.55H486.705C484.486 693.55 482.212 694.217 479.993 695.321C477.72 696.436 475.446 698.098 473.227 700.317C470.953 702.645 468.68 705.979 466.461 710.526C464.187 715.074 463.072 721.851 463.072 730.837V751.147H469.838C474.331 751.147 478.835 752.251 483.327 754.47C487.82 756.799 491.81 759.575 495.199 763.019C498.588 766.342 501.353 770.342 503.627 774.781C505.857 779.328 507.016 783.875 507.016 788.314C507.016 795.091 505.857 800.742 503.627 805.301C501.353 809.848 498.588 813.729 495.199 817.063C491.81 820.495 487.82 822.714 483.327 823.829C478.835 825.054 474.331 825.6 469.838 825.6C465.291 825.6 460.798 824.496 456.305 822.168C451.758 819.949 447.812 817.063 444.434 813.729C441.045 810.285 438.214 806.405 435.995 801.857C433.721 797.419 432.617 791.757 432.617 784.99V663.139H605.168C611.934 663.139 618.711 664.364 625.478 666.583C632.244 668.802 638.399 672.245 644.061 676.683C649.669 681.231 654.216 686.336 657.605 691.889C660.983 697.54 662.71 703.76 662.71 710.526V1363.58Z" fill="#AB4559"/>
<path d="M821.727 818.834V1363.58H757.473V663.139H821.727V744.37L865.671 663.139H963.877C972.863 663.139 980.744 664.364 987.511 666.583C994.288 668.802 1000.5 672.803 1006.16 678.345C1011.7 684.007 1015.7 690.216 1017.92 696.994C1020.14 703.76 1021.36 711.642 1021.36 720.627V1363.58H960.434V730.837V718.965C960.434 715.631 959.887 712.188 958.772 708.865C957.548 705.422 955.886 702.645 953.667 700.317C951.448 698.098 948.005 696.994 943.567 696.994H889.413L821.727 818.834Z" fill="#AB4559"/>
</svg>
