<svg width="2590" height="3513" viewBox="0 0 2590 3513" fill="none" xmlns="http://www.w3.org/2000/svg">
<rect x="28.5" y="28.5" width="2533" height="3456" stroke="#AB4559" stroke-width="57"/>
<path d="M2054.03 2053.12V2141.9H2053.7C2022.13 2141.9 1990.89 2140.22 1960.22 2136.99C1535.62 2092.97 1204.29 1751.85 1204.29 1338.98C1204.29 1094.15 1320.28 865.794 1522.48 712.447C1542.79 697.125 1572.26 700.141 1588.49 719.237C1604.71 738.32 1601.51 766.276 1581.3 781.611C1401.29 918.059 1298.1 1121.16 1298.1 1338.98C1298.1 1702.83 1587.49 2003.99 1960.22 2047.69C1990.89 2051.24 2022.02 2053.12 2053.7 2053.12H2054.03Z" fill="#AB4559"/>
<path d="M1782.75 1621.93C1782.75 1624.83 1782.49 1627.61 1781.95 1630.38C1782.49 1633.03 1782.62 1635.81 1782.62 1638.59C1773.41 2065.31 1412.85 2410.37 961.625 2424.38V2335.53C993.407 2334.52 1024.79 2331.49 1055.5 2326.69C1410.32 2272.42 1681.13 1985.16 1688.88 1636.82C1688.88 1634.3 1689.14 1631.77 1689.68 1629.25C1689.28 1626.85 1689.01 1624.45 1689.01 1621.93V580.3C1689.01 555.815 1709.98 536 1735.88 536C1761.79 536 1782.75 555.815 1782.75 580.3V1621.93Z" fill="#AB4559"/>
<path d="M2054.03 2360.43V2425.21C2053.92 2425.32 2053.8 2425.42 2053.69 2425.53C2043.32 2434.49 2028.87 2438.87 2014.07 2436.47C2010.21 2435.85 2006.23 2435.22 2002.37 2434.71C2000.72 2434.49 1999.17 2434.29 1997.63 2433.97C1985.27 2432.21 1972.8 2430.74 1960.22 2429.49C1929.64 2426.36 1898.73 2424.8 1867.83 2424.8C1564.53 2424.8 1280.98 2578.76 1127.9 2826.62C1119.18 2840.7 1103.51 2848.63 1087.29 2848.63C1079.34 2848.63 1071.17 2846.65 1063.66 2842.58C1041.36 2830.27 1033.75 2803.04 1046.89 2781.86C1216.63 2506.89 1531.3 2336.02 1867.83 2336.02C1898.73 2336.02 1929.53 2337.37 1960.22 2340.3C1977.54 2341.76 1994.76 2343.85 2011.87 2346.34C2013.52 2346.56 2015.06 2346.76 2016.61 2347.08C2021.03 2347.59 2025.56 2348.33 2029.96 2349.06C2039.12 2350.62 2047.3 2354.48 2053.69 2360.11C2053.8 2360.23 2053.92 2360.33 2054.03 2360.43Z" fill="#AB4559"/>
<path d="M2054.03 2598.06V2663.05L2053.69 2663.37C2042.54 2672.86 2026.76 2677.24 2010.99 2673.69C1994.2 2669.83 1977.32 2666.7 1960.21 2664.2C1929.74 2659.82 1898.84 2657.62 1867.83 2657.62C1650.83 2657.62 1448.41 2768.1 1339.7 2945.85C1330.98 2960.04 1315.2 2967.97 1298.97 2967.97C1291.03 2967.97 1282.97 2966.09 1275.57 2962.02C1253.06 2949.72 1245.45 2922.59 1258.47 2901.41C1383.95 2696.33 1617.39 2568.96 1867.83 2568.96C1898.84 2568.96 1929.74 2570.84 1960.21 2574.8C1984.71 2577.72 2009 2582 2032.94 2587.42C2041.01 2589.31 2047.95 2592.95 2053.69 2597.75L2054.03 2598.06Z" fill="#AB4559"/>
<path d="M1087.41 2847.58C1071.25 2847.58 1055.52 2839.68 1046.8 2825.53C940.933 2653.59 772.915 2524.85 573.715 2463.02C549.104 2455.37 535.697 2430.31 543.776 2407.04C551.881 2383.77 578.375 2371.12 603.013 2378.74C824.06 2447.36 1010.48 2590.18 1127.93 2780.9C1140.97 2802.07 1133.38 2829.23 1110.97 2841.55C1103.54 2845.63 1095.42 2847.58 1087.41 2847.58Z" fill="#AB4559"/>
<path d="M1055.5 1205.03V2341.03C1055.5 2365.55 1034.42 2385.36 1008.48 2385.36C982.549 2385.36 961.57 2365.55 961.57 2341.03V1205.03C961.57 1180.52 982.549 1160.59 1008.48 1160.59C1034.42 1160.59 1055.5 1180.52 1055.5 1205.03Z" fill="#AB4559"/>
<path d="M2054.02 2390.47V2923.53C2054.02 2925.3 2053.91 2926.98 2053.69 2928.74C2051.04 2950.75 2031.17 2967.87 2007.11 2967.87H1624.89C1598.96 2967.87 1577.98 2948.04 1577.98 2923.53C1577.98 2899.02 1598.96 2879.19 1624.89 2879.19H1960.21V2390.47C1960.21 2366.07 1981.18 2346.14 2007.11 2346.14C2008.77 2346.14 2010.31 2346.25 2011.86 2346.35C2013.52 2346.55 2015.05 2346.77 2016.6 2347.08C2036.25 2350.83 2051.38 2366.27 2053.69 2385.36C2053.91 2387.03 2054.02 2388.71 2054.02 2390.47Z" fill="#AB4559"/>
<path d="M2054.03 1338.87V2390.48C2054.03 2392.26 2053.92 2393.92 2053.69 2395.69C2051.05 2417.7 2031.18 2434.92 2007.12 2434.92C2005.46 2434.92 2003.92 2434.81 2002.37 2434.7C2000.72 2434.5 1999.17 2434.28 1997.63 2433.98C1976.21 2429.91 1960.22 2411.97 1960.22 2390.48V1338.87C1960.22 1314.36 1981.18 1294.53 2007.12 1294.53C2033.06 1294.53 2054.03 1314.36 2054.03 1338.87Z" fill="#AB4559"/>
<path d="M2054.03 1791.18V2923.53C2054.03 2925.31 2053.92 2926.97 2053.69 2928.74V1791.18H2054.03Z" fill="#AB4559"/>
<path d="M582.926 2977C557.006 2977 536 2957.15 536 2932.65V2424.38C536 2399.88 557.006 2380.03 582.926 2380.03C608.845 2380.03 629.851 2399.88 629.851 2424.38V2932.65C629.851 2957.15 608.845 2977 582.926 2977Z" fill="#AB4559"/>
</svg>
